<!DOCTYPE svg PUBLIC "-//W3C//DTD SVG 1.1//EN" "http://www.w3.org/Graphics/SVG/1.1/DTD/svg11.dtd">
<!-- Uploaded to: SVG Repo, www.svgrepo.com, Transformed by: SVG Repo Mixer Tools -->
<svg width="256px" height="256px" viewBox="-3.2 -3.2 38.40 38.40" id="OBJECT" xmlns="http://www.w3.org/2000/svg" fill="#121212" stroke="#121212" stroke-width="0.256" transform="matrix(1, 0, 0, 1, 0, 0)">
<g id="SVGRepo_bgCarrier" stroke-width="0"/>
<g id="SVGRepo_tracerCarrier" stroke-linecap="round" stroke-linejoin="round"/>
<g id="SVGRepo_iconCarrier">
<defs>
<style>.cls-1{fill:#b2b2b2;}</style>
</defs>
<title/>
<path class="cls-1" d="M25,8H7A1,1,0,0,0,6,9V28a3,3,0,0,0,3,3H23a3,3,0,0,0,3-3V9A1,1,0,0,0,25,8Z"/>
<path class="cls-1" d="M8,6A1,1,0,0,1,7,5V2A1,1,0,0,1,9,2V5A1,1,0,0,1,8,6Z"/>
<path class="cls-1" d="M16,6a1,1,0,0,1-1-1V2a1,1,0,0,1,2,0V5A1,1,0,0,1,16,6Z"/>
<path class="cls-1" d="M24,6a1,1,0,0,1-1-1V2a1,1,0,0,1,2,0V5A1,1,0,0,1,24,6Z"/>
<rect height="6" rx="1" ry="1" width="22" x="5" y="4"/>
<path d="M21,27H11a1,1,0,0,1,0-2H21a1,1,0,0,1,0,2Z"/>
<path d="M14,23H11a1,1,0,0,1,0-2h3a1,1,0,0,1,0,2Z"/>
<path d="M21,18H11a1,1,0,0,1,0-2H21a1,1,0,0,1,0,2Z"/>
<path d="M14,14H11a1,1,0,0,1,0-2h3a1,1,0,0,1,0,2Z"/>
</g>
</svg>